<svg width="114" height="120" viewBox="0 0 114 120" fill="none" xmlns="http://www.w3.org/2000/svg">
<g clip-path="url(#clip0_247_315)">
<path d="M46.7313 107.852H2.35352V92.2015H46.8683C50.3295 92.2015 53.1395 95.0076 53.1395 98.4639V101.452C53.1395 104.989 50.2609 107.852 46.7313 107.852Z" fill="#FCECDB"/>
<path d="M91.0058 98.6464V100.996C91.0058 102.251 90.6631 103.437 90.0691 104.441C88.8812 106.483 86.6651 107.852 84.1293 107.852H0.993788C0.445491 107.852 0 107.407 0 106.859V106.506C0 105.958 0.445491 105.513 0.993788 105.513H51.677C51.9511 105.183 52.191 104.829 52.3852 104.441C52.8649 103.551 53.1277 102.525 53.1277 101.452V98.4639C53.1277 97.9164 53.0591 97.3802 52.922 96.8669C52.6936 96 52.2938 95.2129 51.7455 94.5399H0.993788C0.445491 94.5399 0 94.0951 0 93.5475V93.1939C0 92.6464 0.445491 92.2015 0.993788 92.2015H84.5519C87.499 92.2015 89.9778 94.1749 90.7545 96.8669C90.9144 97.4373 91.0058 98.0304 91.0058 98.6464Z" fill="#699DEE"/>
<path d="M90.7545 96.8669H52.9335C52.705 96 52.3052 95.2129 51.7569 94.5399H0.993788C0.445491 94.5399 0 94.0951 0 93.5475V93.1939C0 92.6464 0.445491 92.2015 0.993788 92.2015H84.5519C87.499 92.2015 89.9892 94.1749 90.7545 96.8669Z" fill="#548EE2"/>
<path d="M2.35352 100.027L8.51043 100.289L2.35352 100.449V100.027Z" fill="#F4D2B8"/>
<path d="M2.35352 102.491L16.9976 102.753L2.35352 102.913V102.491Z" fill="#F4D2B8"/>
<path d="M12.9424 120H60.1759V107.817H12.554C9.29854 107.817 6.64844 110.452 6.64844 113.715C6.64844 117.183 9.46988 120 12.9424 120Z" fill="#2B478B"/>
<path d="M57.4573 120H111.213V107.817H57.3202C54.0076 107.817 51.3232 110.498 51.3232 113.806V113.852C51.3232 117.251 54.0647 120 57.4573 120Z" fill="#FCECDB"/>
<path d="M47.7361 120H113.086C113.589 120 114 119.589 114 119.087C114 118.586 113.589 118.175 113.086 118.175H47.7361C47.2335 118.175 46.8223 118.586 46.8223 119.087C46.8223 119.589 47.2335 120 47.7361 120Z" fill="#2B478B"/>
<path d="M47.7361 109.643H113.086C113.589 109.643 114 109.232 114 108.73C114 108.228 113.589 107.817 113.086 107.817H47.7361C47.2335 107.817 46.8223 108.228 46.8223 108.73C46.8223 109.232 47.2335 109.643 47.7361 109.643Z" fill="#2B478B"/>
<path d="M111.213 113.909L103.96 114.114L111.213 114.24V113.909Z" fill="#F4D2B8"/>
<path d="M111.213 111.103L93.9414 111.308L111.213 111.433V111.103Z" fill="#F4D2B8"/>
<path d="M94.125 111.274C94.125 111.274 94.8675 111.799 95.1074 112.654C95.1531 112.802 95.1759 112.962 95.1873 113.133C95.233 114.274 95.1873 116.863 95.1873 116.863L97.3691 115.574L99.5509 116.863V113.361C99.5509 112.7 99.3681 112.049 99.014 111.627C98.8426 111.422 98.637 111.274 98.4086 111.274H94.125Z" fill="#699DEE"/>
<path d="M94.125 111.274C94.125 111.274 94.8675 111.798 95.1074 112.654L99.4823 112.7C99.4823 112.7 99.311 111.468 98.4086 111.262H94.125V111.274Z" fill="#568CDB"/>
<path d="M51.9629 92.2357H100.224V74.3612H51.803C47.9421 74.3612 44.8008 77.4867 44.8008 81.3536V85.095C44.8122 89.0418 48.0106 92.2357 51.9629 92.2357Z" fill="#FCECDB"/>
<path d="M45.9427 81.2966V85.1407C45.9541 86.7833 46.868 88.2091 48.2044 88.9734C48.867 89.3498 49.6209 89.5665 50.4319 89.5665H102.84C103.457 89.5665 103.948 90.0684 103.948 90.673V91.1293C103.948 91.7452 103.445 92.2357 102.84 92.2357H12.3024C9.70944 92.2357 7.41345 90.9468 6.01986 88.9734C5.1403 87.73 4.6377 86.2129 4.6377 84.5817V81.5475C4.6377 80.4296 4.889 79.3688 5.35733 78.422C6.52247 76.0152 8.9898 74.3612 11.8455 74.3612H102.851C103.468 74.3612 103.959 74.8631 103.959 75.4677V75.9239C103.959 76.5399 103.457 77.0304 102.851 77.0304H50.272C49.0154 77.0304 47.8732 77.5665 47.085 78.422C46.3882 79.1749 45.9541 80.1787 45.9427 81.2966Z" fill="#B5453C"/>
<path d="M100.224 83.2928L93.5078 83.6007L100.224 83.7832V83.2928Z" fill="#F4D2B8"/>
<path d="M100.224 79.1863L84.2432 79.4829L100.224 79.6654V79.1863Z" fill="#F4D2B8"/>
<path d="M84.4033 79.4258C84.4033 79.4258 85.4542 79.9962 85.8083 80.9201C85.8655 81.0798 85.9111 81.2623 85.9226 81.4449C85.9797 82.6882 85.9226 85.4829 85.9226 85.4829L89.041 84.0799L92.148 85.4829V81.6844C92.148 80.9658 91.8853 80.2699 91.3827 79.8137C91.1428 79.5969 90.8573 79.4258 90.526 79.4258H84.4033Z" fill="#F99746"/>
<path d="M84.4033 79.4258C84.4033 79.4258 85.4542 79.9962 85.8083 80.9202L92.0452 80.9772C92.0452 80.9772 91.8054 79.6426 90.5146 79.4258H84.4033Z" fill="#ED7D2B"/>
<path d="M52.7961 67.7225C55.5604 72.5247 59.0329 74.3726 59.0329 74.3726H73.4828C73.4943 74.384 50.6942 64.0609 52.7961 67.7225Z" fill="#013F3F"/>
<path d="M63.8997 104.874C64.2767 105.308 64.3224 105.787 64.1396 106.3C64.1396 106.3 64.1396 106.3 64.1396 106.312C63.7969 107.259 62.6546 108.331 61.3296 109.392C61.1582 109.528 61.0097 109.654 60.8841 109.768C60.8498 109.802 60.8155 109.825 60.7813 109.859C60.7584 109.882 60.7242 109.905 60.7013 109.928C59.4677 111.068 59.936 111.319 57.72 113.624C55.1955 116.247 53.4478 116.293 52.9566 116.053C52.534 115.848 53.3907 114.456 54.3274 112.893C54.3731 112.814 54.4188 112.745 54.4645 112.665C54.5901 112.46 54.7158 112.243 54.8414 112.038C55.9494 110.156 55.6639 109.266 55.4011 106.471C55.1841 104.19 51.8486 93.7414 51.8486 93.7414L56.6919 92.9087C56.6919 92.9087 58.154 101.224 59.7532 102.513C60.6099 103.198 61.5695 103.209 62.4033 103.711C62.4604 103.745 62.5175 103.779 62.5747 103.825C63.043 104.122 63.5228 104.441 63.8997 104.874Z" fill="#FFB27D"/>
<path d="M63.8997 104.875C64.2766 105.308 64.3223 105.787 64.1395 106.3C64.1395 106.3 64.1395 106.3 64.1395 106.312C63.7169 107.259 62.6089 108.319 61.3295 109.38C61.1582 109.517 61.0097 109.643 60.884 109.768C60.8498 109.802 60.8155 109.825 60.7812 109.859C60.7584 109.882 60.7241 109.905 60.7013 109.928C59.4676 111.068 59.9359 111.319 57.7199 113.624C55.1955 116.247 53.4478 116.293 52.9566 116.053C52.5339 115.848 53.3906 114.456 54.3273 112.894C54.8185 112.711 57.1031 111.787 58.8279 109.574C60.3472 107.635 61.3638 105.148 62.4033 103.7C62.4604 103.734 62.5175 103.768 62.5746 103.814C63.043 104.122 63.5227 104.441 63.8997 104.875Z" fill="#19191E"/>
<path d="M24.8564 101.852C24.5594 103.346 22.4233 103.095 20.0474 102.513C17.6714 101.932 18.2311 102.627 14.8386 102.251C11.446 101.875 10.4293 100.62 10.3151 100.106C10.2237 99.6616 11.8915 99.5019 13.6963 99.2966C13.9247 99.2737 14.1532 99.2395 14.3702 99.2167C16.3921 98.9658 17.877 97.654 19.7275 96.5817C21.4752 95.5665 24.0796 91.4258 24.0796 91.4258L28.7287 91.7909C28.7287 91.7909 26.2957 95.4867 25.3476 97.095C24.7879 98.0418 24.8221 99.2966 24.8907 100.255C24.9249 100.791 24.9592 101.327 24.8564 101.852Z" fill="#FFB27D"/>
<path d="M20.0357 102.513C17.6597 101.932 18.2194 102.627 14.8268 102.251C11.4343 101.875 10.4176 100.62 10.3034 100.106C10.212 99.6616 11.8797 99.5019 13.6846 99.2966L13.696 99.3308C13.696 99.3308 15.7292 100.768 18.5507 100.837C20.8467 100.894 23.2797 100.232 24.8675 100.255C24.9018 100.779 24.9361 101.316 24.8332 101.84C24.5477 103.346 22.423 103.095 20.0357 102.513Z" fill="#19191E"/>
<path d="M42.6641 72.1825L47.0047 83.8517L52.6705 99.0913C52.6705 99.0913 54.2125 99.2395 55.6861 98.8175C57.0454 98.4297 58.5989 97.403 58.5989 97.403C58.5989 97.403 57.0226 81.0342 54.0869 71.6464C53.333 69.2396 52.4877 67.289 51.5624 66.1825C47.0047 60.8099 42.6641 72.1825 42.6641 72.1825Z" fill="#013F3F"/>
<path d="M47.0732 53.6464C49.9175 52.7338 58.0391 53.9087 66.1836 55.5057L67.8856 52.6996L85.4996 51.3308C85.4996 51.3308 91.3139 64.1977 88.1269 72.3992C87.6585 73.6083 86.7333 74.3726 85.1455 74.4068C85.1455 74.4068 84.8942 74.4068 84.8828 74.4068C84.8828 74.4068 74.3966 74.3954 70.9926 74.3954C62.2313 74.3954 52.4533 68.384 51.1968 68.1331C49.1293 67.7224 48.2954 71.8517 46.2279 76.1977C44.1604 80.5437 26.7634 95.4182 26.7634 95.4182C26.7634 95.4182 24.0904 95.441 22.9824 95.0304C21.7944 94.5855 21.3604 94.0038 21.3604 94.0038C21.3604 94.0038 40.6535 55.711 47.0732 53.6464Z" fill="#025456"/>
<path d="M67.9997 28.4601C74.2709 31.9049 86.9959 39.057 87.0644 39.0114C87.0644 39.0114 91.7364 40.7681 94.3979 39.0114C98.8186 36.0798 101.194 28.1863 93.1071 21.3992C89.0749 18.0114 86.2077 17.1901 85.7737 11.7833C85.5224 8.85171 81.5129 -0.832704 74.842 0.0570296C74.2823 0.136878 70.8554 0.296573 68.5937 1.47148C62.8366 4.49429 58.5987 27.1255 67.9997 28.4601Z" fill="#19191E"/>
<path d="M73.2547 25.5285C73.2318 25.5513 76.3388 26.6122 78.4178 25.6882C80.3711 24.8213 81.8561 21.6046 81.8332 21.6046C80.9422 21.5589 79.9599 20.7833 79.206 15.6844L78.829 15.8213L72.4551 18.1141C72.4551 18.1141 72.912 20.1559 73.2204 22.1065C73.4717 23.7376 73.6088 25.3004 73.2547 25.5285Z" fill="#FFB27D"/>
<path d="M72.4551 18.1141C72.4551 18.1141 72.912 20.1559 73.2204 22.1065C76.8871 21.4449 78.3264 17.8061 78.8405 15.8213L72.4551 18.1141Z" fill="#ED975D"/>
<path d="M71.5074 20.1445C71.5074 20.1445 80.2344 18.9696 79.4234 13.5627C78.6124 8.14448 79.1835 4.346 73.5863 4.87071C67.9777 5.38402 67.2124 7.61976 67.0411 9.49049C66.8697 11.3498 69.2228 20.3042 71.5074 20.1445Z" fill="#FFB27D"/>
<path d="M67.3604 6.51331C67.3604 6.51331 72.9461 11.3156 76.7499 11.7034C80.5537 12.0913 81.993 10.8707 81.993 10.8707C81.993 10.8707 79.7427 9.01141 78.3948 6.02281C77.995 5.13308 77.1611 4.52852 76.1902 4.44867C73.4716 4.20912 68.3313 4.10646 67.3604 6.51331Z" fill="#19191E"/>
<path d="M70.8449 6.07984C70.8449 6.07984 68.9715 7.88212 68.3889 9.22813C67.8178 10.5171 67.6465 13.6084 68.1034 14.8403C68.1034 14.8403 65.1905 9.1825 66.8354 6.44486C68.5946 3.5133 70.8449 6.07984 70.8449 6.07984Z" fill="#19191E"/>
<path d="M65.9098 38.3726C66.1725 56.0076 65.9783 52.3232 67.9088 54C68.3771 54.3992 69.6793 54.6388 71.4042 54.7528C76.8186 55.1064 86.3453 54.2167 86.6994 53.2243C87.9445 49.768 87.0649 48.6958 88.1044 43.3916C88.2186 42.8327 88.3443 42.2167 88.5042 41.5551C89.3723 37.9163 90.2176 36.6844 87.1334 30.8327C84.3348 25.5399 81.4334 21.2395 81.1707 21.3992C73.7915 25.768 73.1976 22.095 73.1976 22.095C73.1976 22.095 65.7841 29.7604 65.9098 38.3726Z" fill="white"/>
<path d="M47.0049 83.8517L52.6706 99.0913C52.6706 99.0913 54.2127 99.2395 55.6862 98.8175C57.0456 98.4297 58.5991 97.403 58.5991 97.403C58.5991 97.403 57.0227 81.0342 54.087 71.6464L47.0049 83.8517Z" fill="#025456"/>
<path d="M73.2209 22.095C73.2209 22.095 65.6247 23.384 64.7337 26.6464C63.8427 29.9087 58.5996 49.0951 58.5996 49.0951C58.5996 49.0951 62.4605 49.7909 64.2425 48.0114C66.0245 46.2319 70.4451 31.4943 70.4451 31.4943L73.2209 22.095Z" fill="white"/>
<path d="M71.416 54.7528C76.8305 55.1064 86.3571 54.2167 86.7112 53.2243C87.9563 49.7681 87.0768 48.6958 88.1163 43.3916L85.5118 36.0456C85.5118 36.0456 85.9459 44.2243 83.5243 46.3802C81.114 48.5361 73.6321 50.5323 72.4555 52.3346C71.8958 53.1901 71.5188 54.057 71.416 54.7528Z" fill="#EBF3FF"/>
<path d="M77.6182 51.308C77.6182 51.308 72.2723 50.1216 71.4156 50.5893C70.5589 51.0684 68.4457 52.7909 68.183 53.384C67.9202 53.9886 70.102 52.9277 70.8102 52.7338C71.2671 52.6084 72.4779 53.0304 73.0834 53.2357C75.6078 54.0798 77.1499 53.6464 77.1499 53.6464L77.6182 51.308Z" fill="#FFB27D"/>
<path d="M81.1935 21.3992C81.1935 21.3992 88.367 21.8441 90.8572 25.3004C94.3526 30.1711 101.286 50.9201 97.3111 53.692C92.8334 56.8061 76.9328 54.5019 76.9328 54.5019C76.9328 54.5019 76.4073 52.038 77.1384 50.8403C77.8694 49.6426 89.8406 47.7148 90.3889 47.1673C90.9372 46.6198 83.4895 36.422 83.4895 34.7681C83.4895 33.1141 81.1935 21.3992 81.1935 21.3992Z" fill="white"/>
<path d="M71.1529 52.0836C71.1529 52.0836 70.0334 53.5209 69.6679 53.7034C69.3024 53.8745 69.0625 53.8289 69.0625 53.8289L69.8164 52.4715L71.1529 52.0836Z" fill="#FFB27D"/>
<path d="M71.4157 50.6007L68.1602 52.1749C68.1602 52.1749 68.2972 52.403 68.697 52.3802C69.0968 52.3574 70.1135 51.9924 70.1135 51.9924L71.4157 50.6007Z" fill="#FFB27D"/>
<path d="M69.6682 55.9049H43.9212L36.165 36.673H61.8779L69.6682 55.9049Z" fill="#F99746"/>
<path d="M43.6123 55.1521H77.6181V55.9049H43.9207L43.6123 55.1521Z" fill="#ED7D2B"/>
<path d="M50.4211 46.289C50.2269 45.616 50.6152 45.0684 51.3006 45.0684C51.9746 45.0684 52.6828 45.616 52.877 46.289C53.0711 46.962 52.6828 47.5095 51.9974 47.5095C51.312 47.5095 50.6152 46.962 50.4211 46.289Z" fill="white"/>
</g>
<defs>
<clipPath id="clip0_247_315">
<rect width="114" height="120" fill="white"/>
</clipPath>
</defs>
</svg>
