<svg width="119" height="222" viewBox="0 0 119 222" fill="none" xmlns="http://www.w3.org/2000/svg">
<path d="M70.2939 222H46.541C44.8461 220.845 46.9883 209.558 46.9883 209.558C46.9883 209.558 53.4621 207.084 54.5921 212.103C55.722 217.099 62.855 218.701 66.6215 219.314C69.2111 219.714 70.035 221.128 70.2939 222Z" fill="#19191E"/>
<path d="M66.3623 96.5668L55.2745 211.867C55.2745 211.867 52.9439 215.449 45.5756 213.046C45.5756 213.046 39.8786 194.43 38.1837 173.151C38.1601 172.798 38.1366 172.444 38.113 172.091C37.548 164.409 36.8889 153.71 36.2533 143.106C35.0998 123.831 34.0875 104.861 34.0875 104.861L66.3623 96.5668Z" fill="#025456"/>
<path d="M52.0732 118.623C52.0732 118.623 48.2596 144.308 46.9648 152.108C44.1634 168.721 38.2076 173.151 38.2076 173.151C38.184 172.798 38.1605 172.444 38.1369 172.091C37.572 164.409 36.9128 153.71 36.2772 143.106L52.0732 118.623Z" fill="#013F3F"/>
<path d="M105.7 65.8624C105.7 65.8624 107.912 63.1997 109.089 62.8226C110.266 62.4456 112.574 60.6783 112.856 61.4088C113.162 62.1393 111.326 63.2704 111.42 64.0951C111.467 64.4721 112.88 64.4722 114.457 64.4722C116.458 64.4486 118.883 63.3646 118.977 63.8595C119.306 65.6504 116.693 68.8787 113.962 69.185C111.773 69.4207 108.713 68.9729 105.064 69.35C103.769 69.4678 105.7 65.8624 105.7 65.8624Z" fill="#FFB27D"/>
<path d="M107.206 69.7977C107.135 70.0098 99.2253 71.3294 92.3984 72.2955C88.3729 72.861 84.724 73.3088 83.241 73.3088C80.0158 73.3559 73.8716 72.2719 66.5974 69.185C62.5484 67.4648 58.1227 65.1555 53.6969 62.045C49.7891 59.3351 49.6714 57.1907 46.4228 52.8313C36.3472 39.2818 49.6008 33.5557 56.875 36.1478C61.9128 37.9386 64.9731 41.002 67.7039 45.1493C70.929 50.0507 73.5656 55.5177 81.6166 60.2541C87.6431 63.8359 105.723 64.802 105.723 64.802C105.723 64.802 106.782 65.5797 107.041 66.8757C107.347 68.3367 107.206 69.7977 107.206 69.7977Z" fill="#F99746"/>
<path d="M35.0527 222H11.2998C9.60489 220.845 11.7707 209.558 11.7707 209.558C11.7707 209.558 18.2444 207.084 19.3744 212.079C20.5044 217.075 27.6373 218.677 31.4039 219.29C33.9934 219.714 34.7938 221.128 35.0527 222Z" fill="#19191E"/>
<path d="M57.4404 102.152L21.4697 212.362C21.4697 212.362 13.8189 214.412 9.88752 210.241C9.88752 210.241 10.8056 171.384 15.7022 158.117C19.6806 147.372 17.7502 89.4268 35.3589 88.932C52.9912 88.4135 57.4404 102.152 57.4404 102.152Z" fill="#025456"/>
<path d="M65.6793 102.858C60.1236 105.71 52.9201 107.736 41.0318 106.959C29.6144 106.205 22.6227 103.071 22.9758 100.337C23.1406 98.9704 23.3289 97.5801 23.4702 96.1191C24.1058 89.8274 24.3647 82.3339 23.07 71.5886C22.7404 68.808 22.2931 65.8389 21.94 63.2468C21.4927 60.1127 21.1632 57.5442 21.1867 56.5781C21.1867 56.5781 24.812 40.3186 27.5193 37.703C28.4844 36.7604 29.8969 35.9828 31.6389 35.3701H31.6625C39.8312 32.4246 54.8269 33.0844 61.4655 38.8341C62.36 39.6117 65.5616 45.0315 65.6558 50.899C65.797 59.0523 69.2811 100.997 65.6793 102.858Z" fill="#F99746"/>
<path d="M37.4539 34.7575C36.63 33.7206 38.937 31.7883 37.9248 24.2242C37.9012 24.1299 38.6545 24.2713 39.7845 24.5305C43.1509 25.3317 49.9071 27.2404 50.2132 27.3347C50.2132 27.3347 50.3073 28.9371 50.5663 31.7883C50.5898 32.0476 50.6134 32.3068 50.6369 32.566C50.6605 32.8959 50.7075 33.2493 50.7546 33.6264C51.555 39.3054 41.2676 39.5881 37.4539 34.7575Z" fill="#FFB27D"/>
<path d="M50.5664 31.7648C45.5522 32.9194 38.0426 25.4967 38.0426 25.4967C38.584 25.0961 39.1725 24.7662 39.7611 24.5305C43.1274 25.3317 49.8837 27.2404 50.1898 27.3347C50.1898 27.3347 50.3075 28.9135 50.5664 31.7648Z" fill="#ED975D"/>
<path d="M52.285 26.9341C52.285 26.9341 50.2134 27.6881 47.5768 28.0416C43.7161 28.56 38.6547 28.2537 37.0775 23.5879C34.3938 15.741 30.9803 11.0281 38.8666 7.82337C43.0804 6.10317 45.7877 6.00892 47.6239 6.66872C49.2247 7.23426 50.1663 8.36535 50.8725 9.47288C52.4027 11.8529 55.4866 25.5438 52.285 26.9341Z" fill="#FFB27D"/>
<path d="M50.5428 2.92198C53.4148 5.51406 51.7905 10.2976 47.9298 10.5804C46.3761 10.6982 45.1048 10.6275 44.2338 11.0281C42.2799 11.9 41.9268 15.199 41.8797 16.2359C41.8562 17.2727 41.7149 18.1681 39.0313 17.5319C38.584 17.4376 38.2779 17.4612 38.0661 17.579C36.9596 18.2388 38.3721 21.42 38.7958 22.1034C38.7958 22.1034 39.4079 24.3891 38.0425 25.4967C37.8777 25.638 35.1941 26.7927 28.7674 16.9428C27.7551 15.3875 26.7899 11.9 28.3436 8.55387C29.9209 5.18416 36.324 1.50812 41.9739 0.21208C45.4815 -0.589109 48.4006 0.96614 50.5428 2.92198Z" fill="#19191E"/>
<path d="M92.3984 72.2955C88.3729 72.861 84.7241 73.3088 83.241 73.3088C80.0159 73.3559 73.8716 72.2719 66.5975 69.185C66.2914 68.1482 66.0089 61.6444 66.6445 61.2203C68.5749 59.9006 72.4121 67.3941 78.8388 69.3264C84.3003 70.9759 90.6329 72.0127 92.3984 72.2955Z" fill="#B26B36"/>
<path d="M25.5897 96.6375C24.6951 96.8967 24.0124 96.6139 23.4945 96.0955C24.1301 89.8038 24.3891 82.3104 23.0943 71.565C22.7648 68.7844 22.3175 65.8153 21.9644 63.2232C21.9644 63.2232 27.3553 58.581 29.1914 62.422C31.0512 66.263 25.7545 76.4193 28.6735 82.4989C31.5691 88.5785 28.8383 95.7421 25.5897 96.6375Z" fill="#B26B36"/>
<path d="M17.5381 93.0557C17.5381 93.0557 20.4572 95.1765 21.187 95.0351C23.3763 94.6581 24.5063 92.8908 26.5308 93.0557C28.5554 93.2207 32.8634 95.5064 32.369 96.0248C30.5563 97.91 27.7785 96.8967 26.4837 98.0514C25.5656 98.8526 25.0242 100.526 21.7284 100.172C18.4327 99.8423 15.5136 97.1088 15.5136 97.1088L17.5381 93.0557Z" fill="#FFB27D"/>
<path d="M31.6631 35.3466C31.6631 35.3466 18.9509 38.9048 9.88763 51.3939C0.824331 63.883 -2.09475 72.3191 1.45994 78.5636C5.01464 84.8082 11.9592 95.8363 18.692 100.502C18.692 100.502 22.0583 99.7716 21.7994 94.6345C21.7994 94.6345 13.5365 77.0084 13.8425 74.6048C14.4075 70.1747 26.1545 58.9109 28.744 56.5781C31.31 54.2216 31.6631 35.3466 31.6631 35.3466Z" fill="#F99746"/>
<path d="M22.5765 94.7995C22.5765 94.7995 24.0361 92.5373 24.2479 91.8775C24.4363 91.2177 24.7894 92.231 24.6481 92.8908C24.5069 93.5741 24.6717 94.1161 24.6717 94.1161L22.5765 94.7995Z" fill="#FFB27D"/>
</svg>
