<svg width="47" height="75" viewBox="0 0 47 75" fill="none" xmlns="http://www.w3.org/2000/svg">
<path d="M44.6793 69.8585C39.1236 72.7098 31.9201 74.7363 20.0318 73.9587C8.61441 73.2046 1.62271 70.0706 1.97583 67.3371C2.14062 65.9704 2.32895 64.5801 2.4702 63.1191C3.1058 56.8274 3.36475 49.3339 2.06999 38.5886C1.74042 35.808 1.29314 32.8389 0.940025 30.2468C0.492744 27.1127 0.163166 24.5442 0.18671 23.5781C0.18671 23.5781 3.81203 7.31864 6.51925 4.703C7.48444 3.76042 8.8969 2.9828 10.6389 2.37013H10.6625C18.8312 -0.57542 33.8269 0.0843819 40.4655 5.83409C41.36 6.61171 44.5616 12.0315 44.6558 17.899C44.797 26.0523 48.2811 67.9969 44.6793 69.8585Z" fill="#F99746"/>
</svg>
