<svg width="20" height="20" viewBox="0 0 20 20" fill="none" xmlns="http://www.w3.org/2000/svg">
<path d="M10.875 8.15837L8.33334 6.25004V13.75L10.875 11.8417L13.3333 10L10.875 8.15837ZM10.875 8.15837L8.33334 6.25004V13.75L10.875 11.8417L13.3333 10L10.875 8.15837ZM10.875 8.15837L8.33334 6.25004V13.75L10.875 11.8417L13.3333 10L10.875 8.15837ZM9.16668 3.39171V1.70837C7.49168 1.87504 5.96668 2.54171 4.73334 3.55004L5.91668 4.74171C6.8583 4.00661 7.98135 3.54012 9.16668 3.39171ZM4.74168 5.91671L3.55001 4.73337C2.51235 5.9972 1.8716 7.53965 1.70834 9.16671H3.39168C3.54168 7.95004 4.02501 6.84171 4.74168 5.91671ZM3.39168 10.8334H1.70834C1.87501 12.5084 2.54168 14.0334 3.55001 15.2667L4.74168 14.075C4.00531 13.1373 3.53857 12.0166 3.39168 10.8334ZM4.73334 16.45C5.99799 17.4863 7.54001 18.1269 9.16668 18.2917V16.6084C7.98135 16.46 6.8583 15.9935 5.91668 15.2584L4.73334 16.45ZM18.3333 10C18.3333 14.3 15.0667 17.85 10.875 18.2917V16.6084C14.1417 16.175 16.6667 13.375 16.6667 10C16.6667 6.62504 14.1417 3.82504 10.875 3.39171V1.70837C15.0667 2.15004 18.3333 5.70004 18.3333 10Z" fill="#939393"/>
</svg>
