<svg width="16" height="16" viewBox="0 0 16 16" fill="none" xmlns="http://www.w3.org/2000/svg">
<path d="M4.47335 12.1934C4.53502 12.2552 4.60828 12.3043 4.68893 12.3377C4.76958 12.3712 4.85604 12.3884 4.94335 12.3884C5.03066 12.3884 5.11712 12.3712 5.19776 12.3377C5.27841 12.3043 5.35167 12.2552 5.41335 12.1934L8.00001 9.61343L10.5933 12.2001C10.6551 12.2618 10.7283 12.3108 10.809 12.3442C10.8896 12.3776 10.9761 12.3948 11.0633 12.3948C11.1506 12.3948 11.2371 12.3776 11.3177 12.3442C11.3984 12.3108 11.4716 12.2618 11.5333 12.2001C11.5951 12.1384 11.644 12.0651 11.6774 11.9845C11.7108 11.9038 11.728 11.8174 11.728 11.7301C11.728 11.6428 11.7108 11.5564 11.6774 11.4757C11.644 11.3951 11.5951 11.3218 11.5333 11.2601L8.47335 8.20009C8.21335 7.94009 7.79335 7.94009 7.53335 8.2001L4.47335 11.2601C4.41159 11.3211 4.36255 11.3938 4.32909 11.4739C4.29562 11.554 4.27839 11.6399 4.27839 11.7268C4.27839 11.8136 4.29562 11.8995 4.32909 11.9796C4.36255 12.0597 4.41159 12.1324 4.47335 12.1934Z" fill="#BE870D"/>
<path d="M4.47318 8.68757C4.53485 8.74937 4.60811 8.7984 4.68876 8.83186C4.76941 8.86531 4.85587 8.88253 4.94318 8.88253C5.03049 8.88253 5.11695 8.86531 5.19759 8.83186C5.27824 8.7984 5.3515 8.74937 5.41318 8.68757L7.99984 6.10757L10.5865 8.69424C10.7112 8.81889 10.8802 8.88892 11.0565 8.88892C11.2328 8.88892 11.4019 8.81889 11.5265 8.69424C11.6512 8.56958 11.7212 8.40052 11.7212 8.22424C11.7212 8.04795 11.6512 7.87889 11.5265 7.75424L8.46651 4.69424C8.20651 4.43423 7.78651 4.43423 7.52651 4.69424L4.46651 7.75424C4.34412 7.87914 4.27613 8.04741 4.27738 8.22228C4.27863 8.39715 4.34902 8.56442 4.47318 8.68757Z" fill="#BE870D"/>
</svg>
