<svg width="16" height="20" viewBox="0 0 16 20" fill="none" xmlns="http://www.w3.org/2000/svg">
<path d="M13.9998 8.79999H12.7998V5.19999C12.7998 2.55999 10.6398 0.399994 7.9998 0.399994C5.3598 0.399994 3.1998 2.55999 3.1998 5.19999V8.79999H1.9998C1.3998 8.79999 0.799805 9.39999 0.799805 9.99999V18.4C0.799805 19 1.3998 19.6 1.9998 19.6H13.9998C14.5998 19.6 15.1998 19 15.1998 18.4V9.99999C15.1998 9.39999 14.5998 8.79999 13.9998 8.79999ZM9.19981 17.2H6.7998L7.2798 14.56C6.6798 14.32 6.1998 13.6 6.1998 13C6.1998 12.04 7.0398 11.2 7.9998 11.2C8.95981 11.2 9.7998 12.04 9.7998 13C9.7998 13.72 9.43981 14.32 8.71981 14.56L9.19981 17.2ZM10.3998 8.79999H5.5998V5.19999C5.5998 3.87999 6.6798 2.79999 7.9998 2.79999C9.31981 2.79999 10.3998 3.87999 10.3998 5.19999V8.79999Z" fill="#C89F9F"/>
</svg>
