<svg width="18" height="18" viewBox="0 0 18 18" fill="none" xmlns="http://www.w3.org/2000/svg">
<g clip-path="url(#clip0_301_982)">
<path fill-rule="evenodd" clip-rule="evenodd" d="M13.0613 10.7865C12.8378 10.6747 11.742 10.1362 11.538 10.0612C11.334 9.98699 11.1855 9.95024 11.0363 10.1737C10.8877 10.3957 10.461 10.8982 10.3312 11.0467C10.2007 11.196 10.071 11.214 9.84825 11.103C9.6255 10.9905 8.907 10.7557 8.05575 9.99674C7.3935 9.40574 6.94575 8.67599 6.816 8.45249C6.68625 8.22974 6.80175 8.10899 6.9135 7.99799C7.014 7.89824 7.13625 7.73774 7.248 7.60799C7.35975 7.47749 7.3965 7.38449 7.47075 7.23524C7.54575 7.08674 7.50825 6.95699 7.452 6.84524C7.3965 6.73349 6.951 5.63624 6.765 5.18999C6.58425 4.75574 6.4005 4.81499 6.264 4.80749C6.1335 4.80149 5.985 4.79999 5.8365 4.79999C5.688 4.79999 5.4465 4.85549 5.2425 5.07899C5.03775 5.30174 4.4625 5.84099 4.4625 6.93824C4.4625 8.03474 5.2605 9.09449 5.37225 9.24374C5.484 9.39224 6.9435 11.6437 9.17925 12.609C9.71175 12.8385 10.1265 12.9757 10.4497 13.0777C10.9837 13.248 11.4698 13.224 11.8538 13.1662C12.2812 13.1025 13.1723 12.627 13.3583 12.1065C13.5435 11.586 13.5435 11.1397 13.488 11.0467C13.4325 10.9537 13.284 10.8982 13.0605 10.7865H13.0613ZM8.99475 16.3387H8.99175C7.66382 16.339 6.36028 15.982 5.21775 15.3052L4.94775 15.1447L2.14125 15.8812L2.8905 13.1452L2.71425 12.8647C1.97185 11.683 1.57897 10.3153 1.581 8.91974C1.5825 4.83224 4.908 1.50674 8.99775 1.50674C10.9777 1.50674 12.8393 2.27924 14.2388 3.68024C14.929 4.36768 15.4762 5.18516 15.8485 6.08541C16.2208 6.98566 16.4109 7.9508 16.4078 8.92499C16.4062 13.0125 13.0807 16.3387 8.99475 16.3387ZM15.3038 2.61599C14.4774 1.78418 13.4942 1.12464 12.4111 0.675591C11.328 0.226539 10.1665 -0.00309724 8.994 -9.32116e-06C4.0785 -9.32116e-06 0.0765 4.00124 0.075 8.91899C0.07425 10.491 0.4845 12.0255 1.26525 13.3777L0 18L4.728 16.7595C6.03591 17.4721 7.50157 17.8455 8.991 17.8455H8.99475C13.9102 17.8455 17.9123 13.8442 17.9137 8.92574C17.9174 7.7537 17.6886 6.59257 17.2406 5.50952C16.7926 4.42647 16.1343 3.44299 15.3038 2.61599Z" fill="#939393"/>
</g>
<defs>
<clipPath id="clip0_301_982">
<rect width="18" height="18" fill="white"/>
</clipPath>
</defs>
</svg>
