<svg width="26" height="26" viewBox="0 0 26 26" fill="none" xmlns="http://www.w3.org/2000/svg">
<path d="M3.25 13C3.25 14.7918 4.70817 16.25 6.5 16.25C7.36017 16.25 8.138 15.9088 8.71975 15.3617L15.21 19.071C15.1905 19.2118 15.1667 19.3527 15.1667 19.5C15.1667 21.2918 16.6248 22.75 18.4167 22.75C20.2085 22.75 21.6667 21.2918 21.6667 19.5C21.6667 17.7082 20.2085 16.25 18.4167 16.25C17.5565 16.25 16.7787 16.5913 16.1969 17.1383L9.70667 13.4301C9.72617 13.2882 9.75 13.1473 9.75 13C9.75 12.8527 9.72617 12.7118 9.70667 12.5699L16.1969 8.86167C16.7787 9.40875 17.5565 9.75 18.4167 9.75C20.2085 9.75 21.6667 8.29183 21.6667 6.5C21.6667 4.70817 20.2085 3.25 18.4167 3.25C16.6248 3.25 15.1667 4.70817 15.1667 6.5C15.1667 6.64733 15.1905 6.78817 15.21 6.93008L8.71975 10.6383C8.12067 10.0692 7.3263 9.75133 6.5 9.75C4.70817 9.75 3.25 11.2082 3.25 13Z" fill="white"/>
</svg>
