<svg width="26" height="26" viewBox="0 0 26 26" fill="none" xmlns="http://www.w3.org/2000/svg">
<path d="M21.8404 7.41C18.7204 2.6 12.3504 1.17 7.41045 4.16C2.60045 7.15 1.04045 13.65 4.16045 18.46L4.42045 18.85L3.38045 22.75L7.28045 21.71L7.67045 21.97C9.36045 22.88 11.1804 23.4 13.0004 23.4C14.9504 23.4 16.9004 22.88 18.5904 21.84C23.4004 18.72 24.8304 12.35 21.8404 7.41ZM19.1104 17.42C18.5904 18.2 17.9404 18.72 17.0304 18.85C16.5104 18.85 15.8604 19.11 13.2604 18.07C11.0504 17.03 9.23045 15.34 7.93045 13.39C7.15045 12.48 6.76045 11.31 6.63045 10.14C6.63045 9.1 7.02045 8.19 7.67045 7.54C7.93045 7.28 8.19045 7.15 8.45045 7.15H9.10045C9.36045 7.15 9.62045 7.15 9.75045 7.67C10.0104 8.32 10.6604 9.88 10.6604 10.01C10.7904 10.14 10.7904 10.4 10.6604 10.53C10.7904 10.79 10.6604 11.05 10.5304 11.18C10.4004 11.31 10.2704 11.57 10.1404 11.7C9.88045 11.83 9.75045 12.09 9.88045 12.35C10.4004 13.13 11.0504 13.91 11.7004 14.56C12.4804 15.21 13.2604 15.73 14.1704 16.12C14.4304 16.25 14.6904 16.25 14.8204 15.99C14.9504 15.73 15.6004 15.08 15.8604 14.82C16.1204 14.56 16.2504 14.56 16.5104 14.69L18.5904 15.73C18.8504 15.86 19.1104 15.99 19.2404 16.12C19.3704 16.51 19.3704 17.03 19.1104 17.42Z" fill="white"/>
</svg>
