<svg width="26" height="26" viewBox="0 0 26 26" fill="none" xmlns="http://www.w3.org/2000/svg">
<path d="M23.4001 9.5849V18.85C23.4001 19.712 23.0577 20.5386 22.4482 21.1481C21.8387 21.7576 21.0121 22.1 20.1501 22.1H5.8501C4.98814 22.1 4.16149 21.7576 3.552 21.1481C2.94251 20.5386 2.6001 19.712 2.6001 18.85V9.5849L12.6699 15.5103C12.7699 15.5693 12.884 15.6004 13.0001 15.6004C13.1162 15.6004 13.2303 15.5693 13.3303 15.5103L23.4001 9.5849ZM20.1501 5.2C20.9498 5.19987 21.7215 5.49459 22.3175 6.02776C22.9135 6.56093 23.292 7.29513 23.3806 8.0899L13.0001 14.196L2.6196 8.0899C2.7082 7.29513 3.08672 6.56093 3.68273 6.02776C4.27874 5.49459 5.05041 5.19987 5.8501 5.2H20.1501Z" fill="white"/>
</svg>
