<svg width="20" height="20" viewBox="0 0 20 20" fill="none" xmlns="http://www.w3.org/2000/svg">
<path d="M16.2935 2.4975C16.0929 2.5121 15.8959 2.55917 15.7104 2.63688H15.7079C15.5298 2.7075 14.6829 3.06375 13.3954 3.60375L8.78164 5.54687C5.47102 6.94062 2.21664 8.31312 2.21664 8.31312L2.25539 8.29812C2.25539 8.29812 2.03102 8.37187 1.79664 8.5325C1.65185 8.62464 1.52725 8.74519 1.43039 8.88687C1.31539 9.05562 1.22289 9.31375 1.25727 9.58062C1.31352 10.0319 1.60602 10.3025 1.81602 10.4519C2.02852 10.6031 2.23102 10.6737 2.23102 10.6737H2.23602L5.28789 11.7019C5.42477 12.1412 6.21789 14.7487 6.40852 15.3494C6.52102 15.7081 6.63039 15.9325 6.76727 16.1038C6.83352 16.1912 6.91102 16.2644 7.00414 16.3231C7.05256 16.3513 7.10418 16.3735 7.15789 16.3894L7.12664 16.3819C7.13602 16.3844 7.14352 16.3919 7.15039 16.3944C7.17539 16.4012 7.19227 16.4037 7.22414 16.4087C7.70727 16.555 8.09539 16.255 8.09539 16.255L8.11727 16.2375L9.91914 14.5969L12.9391 16.9137L13.0079 16.9431C13.6373 17.2194 14.2748 17.0656 14.6116 16.7944C14.951 16.5212 15.0829 16.1719 15.0829 16.1719L15.1048 16.1156L17.4385 4.16C17.5048 3.865 17.5216 3.58875 17.4485 3.32063C17.3731 3.04927 17.199 2.81588 16.9604 2.66625C16.76 2.54445 16.5277 2.48566 16.2935 2.4975ZM16.2304 3.77875C16.2279 3.81813 16.2354 3.81375 16.2179 3.88937V3.89625L13.906 15.7275C13.896 15.7444 13.8791 15.7812 13.8329 15.8181C13.7841 15.8569 13.7454 15.8812 13.5423 15.8006L9.84852 12.9688L7.61727 15.0025L8.08602 12.0087L14.121 6.38375C14.3698 6.1525 14.2866 6.10375 14.2866 6.10375C14.3041 5.82 13.911 6.02063 13.911 6.02063L6.30102 10.735L6.29852 10.7225L2.65102 9.49437V9.49187L2.64164 9.49C2.64804 9.48788 2.6543 9.48537 2.66039 9.4825L2.68039 9.4725L2.69977 9.46562C2.69977 9.46562 5.95664 8.09312 9.26727 6.69937C10.9248 6.00125 12.5948 5.29813 13.8791 4.75563C15.1635 4.21625 16.1129 3.82062 16.1666 3.79937C16.2179 3.77937 16.1935 3.77937 16.2304 3.77937V3.77875Z" fill="#939393"/>
</svg>
