<svg width="20" height="20" viewBox="0 0 20 20" fill="none" xmlns="http://www.w3.org/2000/svg">
<path d="M17.9453 4.55469L15.4453 2.05469C15.3268 1.93733 15.1668 1.87149 15 1.87149C14.8332 1.87149 14.6732 1.93733 14.5547 2.05469L7.05469 9.55469C6.93861 9.67376 6.87406 9.83372 6.875 10V12.5C6.875 12.6658 6.94085 12.8247 7.05806 12.9419C7.17527 13.0592 7.33424 13.125 7.5 13.125H10C10.1663 13.1259 10.3262 13.0614 10.4453 12.9453L17.9453 5.44532C18.0627 5.32682 18.1285 5.16679 18.1285 5.00001C18.1285 4.83323 18.0627 4.67319 17.9453 4.55469ZM9.74219 11.875H8.125V10.2578L13.125 5.25782L14.7422 6.875L9.74219 11.875ZM15.625 5.99219L14.0078 4.37501L15 3.38282L16.6172 5.00001L15.625 5.99219ZM17.5 9.375V16.25C17.5 16.5815 17.3683 16.8995 17.1339 17.1339C16.8995 17.3683 16.5815 17.5 16.25 17.5H3.75C3.41848 17.5 3.10054 17.3683 2.86612 17.1339C2.6317 16.8995 2.5 16.5815 2.5 16.25V3.75001C2.5 3.41849 2.6317 3.10054 2.86612 2.86612C3.10054 2.6317 3.41848 2.50001 3.75 2.50001H10.625C10.7908 2.50001 10.9497 2.56585 11.0669 2.68306C11.1842 2.80027 11.25 2.95925 11.25 3.12501C11.25 3.29077 11.1842 3.44974 11.0669 3.56695C10.9497 3.68416 10.7908 3.75001 10.625 3.75001H3.75V16.25H16.25V9.375C16.25 9.20924 16.3158 9.05027 16.4331 8.93306C16.5503 8.81585 16.7092 8.75 16.875 8.75C17.0408 8.75 17.1997 8.81585 17.3169 8.93306C17.4342 9.05027 17.5 9.20924 17.5 9.375Z" fill="white"/>
</svg>
